<?xml version="1.0" encoding="utf-8" ?>
<svg xmlns="http://www.w3.org/2000/svg" xmlns:xlink="http://www.w3.org/1999/xlink" width="512" height="512">
	<defs>
		<linearGradient id="gradient_0" gradientUnits="userSpaceOnUse" x1="410.2063" y1="494.784" x2="104.19946" y2="101.34476">
			<stop offset="0" stop-color="#FF006B"/>
			<stop offset="1" stop-color="#56779E"/>
		</linearGradient>
	</defs>
	<path fill="url(#gradient_0)" d="M18.6536 276.739L18.6035 218.332C18.6048 215.39 18.0186 210.843 19.1123 208.18L19.3647 207.593C20.1406 205.784 22.1349 204.301 23.9883 203.702L24.375 203.611C26.5592 203.08 28.9156 203.195 31.1538 203.195L41.1452 203.23C41.7553 184.405 48.9444 166.597 65.4897 156.659C67.2653 155.592 69.4188 154.411 71.4082 153.865C74.2959 153.072 73.9218 153.522 74.0113 150.58C74.7543 126.143 92.0358 103.771 117.408 102.196L118.119 100.324C127.991 74.5811 153.375 62.1577 180.214 70.4977C181.683 70.9543 181.723 68.6822 182.565 67.5968C194.973 51.5973 212.986 45.3735 232.454 52.3363C236.593 53.8167 240.498 55.8835 244.597 57.4855C254.325 51.1021 249.029 44.4983 248.074 35.3422C252.897 24.4348 258.725 29.846 266.113 34.0642C273.03 38.013 280.04 42.2711 287.543 44.984C289.098 42.4834 289.401 40.4945 288.925 37.5806L288.845 37.125C287.709 30.2836 284.184 25.6704 284.676 18.1879L285.875 17.2035C288.149 15.5631 290.948 15.4453 293.625 15.9274C313.504 19.5073 332.941 27.105 348.955 39.6153C367.001 51.2462 387.353 78.8119 391.715 99.2215L392.203 102.079C416.648 103.236 436.093 123.383 438.61 147.42C438.983 150.985 439.358 149.66 442.429 151.24C464.184 162.427 470.591 181.183 470.539 203.767C475.5 203.794 487.885 202.896 491.375 206.213C494.34 209.032 493.391 213.419 493.392 217.133L493.354 278.125C493.332 282.323 493.076 286.703 489.25 289.214L489.016 289.375C486.968 290.687 460.89 289.854 456.323 289.76L455.676 293.463L446.37 337.738L420.809 467.199C419.45 473.663 417.551 493.821 409.334 494.308C404.2 494.613 398.877 494.303 393.726 494.297L242.686 494.278L104.847 493.761C96.378 493.5 96.6007 484.443 95.2434 478.125L57.8572 293.732C57.6257 292.436 57.6327 291.117 57.2543 289.851L37.0565 289.944C28.79 289.951 25.4429 291.751 19.6945 284.875C18.1437 283.02 18.6481 279.096 18.6536 276.739ZM130.192 203.796L455.682 203.719C455.543 185.809 451.122 172.907 434.314 163.355C426.274 158.785 424.984 161.905 424.097 152C423.517 145.524 422.973 140.435 419.614 134.751C414.423 125.965 405.482 118.92 395.389 116.863C391.073 115.984 382.214 116.08 378.825 113.983L378.239 109.125C376.212 88.9268 363.57 71.5357 348.647 58.4797L340.695 52.0107C339.079 50.7898 337.325 49.6956 335.775 48.3996L335.496 48.1642L327.481 43.0881C319.844 38.6079 311.616 35.0152 303.128 32.488L303.169 32.6992C305.267 44.2596 300.873 56.6278 288.044 58.7023C279.164 60.1383 272.845 54.0745 265.296 51.0334C263.757 59.6278 258.233 65.2464 251.177 70.1914C242.406 76.3379 241.737 73.9157 233.667 69.4559C224.219 64.2339 213.172 62.7183 203.498 68.334L202.934 68.6803C191.045 76.0281 192.458 87.0767 187.375 89.0152L186.981 89.1707C184.213 89.9382 181.34 87.5806 179.083 86.2571C161.559 75.9828 133.573 87.7854 133.136 108.338L133.035 115.338C129.382 115.431 125.561 115.209 121.939 115.589C104.541 117.412 88.8368 131.596 89.6304 149.728C99.3378 150.325 108.494 151.128 116.812 156.933L117.099 157.13C120.319 159.388 121.643 163.931 120.09 167.578L119.961 167.893C116.487 175.979 108.468 168.721 104.628 166.855C88.2875 158.914 67.1874 169.018 59.9235 184.749C57.0691 190.93 57.2096 197.029 57.2381 203.684L130.192 203.796ZM160.56 218.347L45.6915 218.306C41.8474 218.31 37.5005 217.877 33.7431 218.509L33.7778 275.194L478.473 275.239C478.706 273.155 478.519 270.844 478.517 268.735L478.381 218.262L160.56 218.347ZM255.556 479.042L304.499 479.1C305.034 477.076 304.99 474.619 305.207 472.521L306.538 452.702C306.657 448.648 306.345 444.304 306.969 440.31L307.041 439.898L312.767 297.283C312.853 294.921 312.853 292.461 313.25 290.13L198.142 289.829L207.247 479.046L255.556 479.042ZM322.448 417.859C322.697 418.506 322.491 420.016 322.481 420.746L321.298 454.375C321.202 456.057 320.86 457.704 320.804 459.401L320.595 479.508C323.401 478.647 327.309 479.049 330.247 479.041L402.485 478.938C402.954 477.941 403.085 476.821 403.311 475.75L434.857 319.989L440.195 293.579C440.424 292.332 440.477 291.049 440.981 289.875L327.68 289.94L322.448 417.859ZM166.966 289.944L71.5281 290.355C71.9566 291.406 72.0232 292.64 72.2448 293.75L95.5215 408.75L108.312 468.595L109.967 475.721C110.17 476.723 110.176 478.002 110.589 478.911L192.768 479.014L183.805 289.87L166.966 289.944Z"/>
	<path fill="#6D6E98" d="M158.161 111.849C173.437 110.858 169.146 128.753 157.396 131.743C156.401 131.761 155.201 131.89 154.232 131.658L153.75 131.531C145.593 129.46 142.814 114.121 158.161 111.849Z"/>
	<path fill="#894B8D" d="M320.288 90.7807C322.325 90.7029 323.375 91.053 325.231 91.8458C328.762 102.426 320.855 113.967 309.493 112.681C307.998 112.181 306.702 111.636 305.324 110.866C302.275 103.595 303.061 92.5215 313.331 95.6088C313.764 95.7391 314.68 93.9687 315.074 93.5756C316.559 92.0962 318.334 91.3712 320.288 90.7807Z"/>
	<path fill="#894B8D" d="M223.609 123.344C232.968 121.851 230.314 139.126 221.05 143.841L220.75 143.991C218.348 145.237 215.405 145.717 212.741 145.26C203.668 142.454 204.26 127.054 215.301 126.729C217.657 126.66 220.604 124.247 223.609 123.344Z"/>
	<path fill="#894B8D" d="M287.656 123.798C288.944 123.623 289.965 124.046 291.168 124.444L292.815 127.962C292.608 129.026 292.324 130.336 292.545 131.411C294.246 139.688 282.875 147.491 275.532 145.31L273.074 143.995C271.841 143.187 271.034 142.196 270.751 140.723L270.689 140.375C268.963 131.283 271.39 126.141 280.676 127.368C282.509 125.092 284.888 124.355 287.656 123.798Z"/>
	<path fill="#894B8D" d="M356.864 122.772C358.23 122.728 360.236 122.263 361.109 123.603C363.713 127.596 362.93 133.401 360.261 137.15L360.008 137.5C358.828 139.165 357.265 140.851 355.645 142.099L354.807 142.73C352.956 144.047 350.397 144.957 348.122 144.568L347.75 144.499C346.876 144.344 346.092 144.131 345.256 143.832C333.407 138.541 342.906 120.682 350.265 126.444C350.591 126.699 350.382 126.625 350.845 126.625L351.363 125.342C352.172 123.832 355.289 123.162 356.864 122.772Z"/>
	<path fill="#894B8D" d="M257.141 158.28C257.994 158.42 260.332 158.567 260.854 159.214C264.684 163.963 261.247 173.251 256.395 176.82L256.057 177.064C252.628 179.607 248.587 181.152 244.377 179.548C240.66 177.968 238.4 174.226 238.933 170.189L238.996 169.75C239.665 164.814 242.699 160.366 248.298 161.291C250.564 161.666 253.042 159.432 255.277 158.809L257.141 158.28Z"/>
	<path fill="#894B8D" d="M188.555 157.307C194.746 157.042 195.557 158.154 194.539 164C193.167 171.886 190.126 177.333 181.326 179.482L181 179.557C179.909 179.826 179.083 179.587 178.012 179.325C169.267 174.855 169.072 163.02 176.425 160.23L176.77 160.104C178.473 159.468 179.858 160.233 181.625 160.213C183.619 158.612 186.093 157.87 188.555 157.307Z"/>
	<path fill="#AD3482" d="M330.432 157.859L331.375 158.007C334.002 160.477 335.256 159.766 338.717 159.799L338.74 160.086C329.421 161.135 332.157 163.579 332.238 168.266C332.346 174.498 323.233 179.721 317.871 179.793C302.868 179.091 310.648 156.904 318.186 161.488C318.783 161.851 321.999 159.896 322.724 159.603C325.252 158.579 327.729 158.125 330.432 157.859Z"/>
	<path fill="#AD3482" d="M399.396 157.339C405.932 155.83 405.426 159.148 405.007 163.875C404.894 165.147 404.91 166.514 404.634 167.761C403.298 173.796 393.61 180.484 387.395 178.832C377.405 175.537 381.451 163.585 387.064 160.201C388.451 159.365 392.261 157.807 393.332 159.625L393.841 158.875C395.328 157.749 397.592 157.589 399.396 157.339Z"/>
</svg>
